<svg xmlns="http://www.w3.org/2000/svg" width="50" height="50" viewBox="0 0 50 50"><defs><style>.a{fill:#f2f2f2}.b{fill:#c9c9c9}</style></defs><path class="a" d="M25 9.44a8.864 8.864 0 00-3.758-3.758A8.869 8.869 0 0025 1.924a8.866 8.866 0 003.758 3.758A8.87 8.87 0 0025 9.44z"/><path class="b" d="M25 3.292a9.554 9.554 0 002.39 2.39A9.554 9.554 0 0025 8.072a9.567 9.567 0 00-2.39-2.39A9.567 9.567 0 0025 3.292M25 0a8.158 8.158 0 01-5.682 5.682A8.158 8.158 0 0125 11.364a8.158 8.158 0 015.682-5.682A8.158 8.158 0 0125 0z"/><path class="a" d="M31.249 23.218a6.416 6.416 0 00-2.2-2.2 6.416 6.416 0 002.2-2.2 6.416 6.416 0 002.2 2.2 6.416 6.416 0 00-2.2 2.2z"/><path class="b" d="M31.25 20.054q.217.264.461.507t.508.461q-.265.218-.508.461t-.461.507q-.218-.264-.461-.507t-.507-.461q.264-.218.507-.461t.461-.507m0-3.009a5.711 5.711 0 01-3.977 3.977 5.711 5.711 0 013.978 3.977 5.711 5.711 0 013.977-3.977 5.711 5.711 0 01-3.978-3.977z"/><path class="a" d="M46.022 26.628a6.416 6.416 0 00-2.2-2.2 6.416 6.416 0 002.2-2.2 6.416 6.416 0 002.2 2.2 6.423 6.423 0 00-2.2 2.2z"/><path class="b" d="M46.022 23.464q.218.264.461.507t.507.461q-.264.218-.508.461t-.461.507q-.217-.264-.461-.507t-.507-.461q.264-.218.507-.461t.461-.507m0-3.009a5.711 5.711 0 01-3.976 3.977 5.711 5.711 0 013.977 3.977 5.711 5.711 0 013.977-3.977 5.711 5.711 0 01-3.977-3.977z"/><g><path class="a" d="M22.065 49.289A21.379 21.379 0 01.71 27.934a21.163 21.163 0 014.288-12.835 21.576 21.576 0 019.627-7.183 22.783 22.783 0 0027.458 27.459 21.572 21.572 0 01-7.183 9.626 21.161 21.161 0 01-12.835 4.288z"/><path class="b" d="M13.657 9.081a23.493 23.493 0 0027.262 27.262 20.872 20.872 0 01-6.446 8.091 20.457 20.457 0 01-12.408 4.145A20.668 20.668 0 011.42 27.934a20.454 20.454 0 014.145-12.408 20.876 20.876 0 018.091-6.446m2-2.263a22.066 22.066 0 1027.526 27.525A22.073 22.073 0 0115.658 6.818z"/></g></svg>