<svg xmlns="http://www.w3.org/2000/svg" width="50" height="50" viewBox="0 0 50 50"><defs><style>.a{fill:#f2f2f2}.b{fill:#c9c9c9}</style></defs><path class="a" d="M34.817 8.647a8.292 8.292 0 00-1.439-1.937 8.283 8.283 0 00-1.937-1.439 8.279 8.279 0 001.937-1.44 8.28 8.28 0 001.439-1.937 8.274 8.274 0 001.44 1.937 8.277 8.277 0 001.937 1.44 8.285 8.285 0 00-1.937 1.439 8.28 8.28 0 00-1.44 1.937z"/><path class="b" d="M34.817 3.232a8.943 8.943 0 00.937 1.1 8.962 8.962 0 001.1.938 8.958 8.958 0 00-1.1.937 8.943 8.943 0 00-.937 1.1 8.964 8.964 0 00-.937-1.1 8.942 8.942 0 00-1.1-.937 8.963 8.963 0 001.1-.937 8.941 8.941 0 00.937-1.1m0-3.232a7.541 7.541 0 01-1.941 3.33 7.545 7.545 0 01-3.33 1.942 7.539 7.539 0 013.33 1.941 7.54 7.54 0 011.941 3.329 7.537 7.537 0 011.942-3.329 7.534 7.534 0 013.329-1.941 7.542 7.542 0 01-3.329-1.942 7.538 7.538 0 01-1.942-3.33z"/><path class="a" d="M46.307 18.704a6.032 6.032 0 00-.857-1.082 6 6 0 00-1.082-.857 5.994 5.994 0 001.081-.857 6.011 6.011 0 00.857-1.081 6.019 6.019 0 00.857 1.081 6.021 6.021 0 001.082.857 6.016 6.016 0 00-1.081.857 6.033 6.033 0 00-.857 1.082z"/><path class="b" d="M46.306 16.026q.17.2.355.384c.123.123.251.241.384.355q-.2.17-.384.355t-.355.383a6.428 6.428 0 00-.739-.739q.2-.17.384-.355t.354-.384m0-2.951a5.277 5.277 0 01-1.359 2.331 5.28 5.28 0 01-2.331 1.359 5.28 5.28 0 012.331 1.359 5.274 5.274 0 011.36 2.329 5.28 5.28 0 011.359-2.331 5.278 5.278 0 012.331-1.359 5.281 5.281 0 01-2.331-1.359 5.282 5.282 0 01-1.359-2.331z"/><path class="a" d="M30.55 39.062a19.635 19.635 0 01-19.613-19.613 19.437 19.437 0 013.938-11.788 19.816 19.816 0 018.743-6.56 21.048 21.048 0 00-.554 4.8 21.057 21.057 0 0021.033 21.034 21.069 21.069 0 004.8-.553 19.816 19.816 0 01-6.56 8.743 19.436 19.436 0 01-11.787 3.937z"/><path class="b" d="M22.659 2.275a21.793 21.793 0 00-.3 3.626 21.768 21.768 0 0021.743 21.744 21.763 21.763 0 003.626-.3 19.114 19.114 0 01-5.814 7.216 18.733 18.733 0 01-11.361 3.8 18.924 18.924 0 01-18.9-18.9A18.733 18.733 0 0115.448 8.1a19.112 19.112 0 017.216-5.814m1.99-2.275a20.33 20.33 0 00-14.427 19.438A20.323 20.323 0 0030.55 39.772 20.33 20.33 0 0049.999 25.35a20.308 20.308 0 01-5.9.874A20.323 20.323 0 0123.776 5.9a20.318 20.318 0 01.873-5.9z"/><g><path d="M8.615 49.289h-.157a7.834 7.834 0 01-7.749-7.811 7.821 7.821 0 017.812-7.812h.156l.592.011.118-.581a7.832 7.832 0 017.656-6.253 7.813 7.813 0 017.8 7.368l.043.775.768-.112a7.311 7.311 0 011.048-.077 7.252 7.252 0 017.244 7.244 7.253 7.253 0 01-7.244 7.245z" fill="#fff"/><path class="b" d="M17.045 27.556a7.1 7.1 0 017.09 6.7l.087 1.549 1.536-.223a6.593 6.593 0 01.946-.069 6.541 6.541 0 016.534 6.534 6.542 6.542 0 01-6.534 6.534H8.464a7.121 7.121 0 01-7.044-7.1 7.11 7.11 0 017.1-7.1h.142l1.185.023.235-1.161a7.119 7.119 0 016.96-5.684m0-1.42a8.525 8.525 0 00-8.353 6.823h-.17a8.523 8.523 0 00-8.522 8.522 8.522 8.522 0 008.453 8.521h18.252a7.954 7.954 0 007.955-7.955 7.954 7.954 0 00-7.955-7.954 7.964 7.964 0 00-1.151.084 8.523 8.523 0 00-8.508-8.039z"/></g></svg>