<svg xmlns="http://www.w3.org/2000/svg" width="50" height="50" viewBox="0 0 50 50"><defs><style>.a{fill:#c9c9c9}</style></defs><path class="a" d="M6.818 48.796a1.172 1.172 0 01-1.136 1.2 1.172 1.172 0 01-1.137-1.2v-3.273a1.172 1.172 0 011.137-1.2 1.172 1.172 0 011.136 1.2zm22.727 0a1.172 1.172 0 01-1.137 1.2 1.172 1.172 0 01-1.136-1.2v-3.278a1.172 1.172 0 011.136-1.2 1.172 1.172 0 011.136 1.2zm-7.575 0a1.172 1.172 0 01-1.136 1.2 1.172 1.172 0 01-1.136-1.2v-3.278a1.172 1.172 0 011.136-1.2 1.172 1.172 0 011.136 1.2zm-7.576 0a1.172 1.172 0 01-1.136 1.2 1.172 1.172 0 01-1.136-1.2v-3.274a1.172 1.172 0 011.137-1.2 1.172 1.172 0 011.136 1.2z"/><path d="M34.44 31.111A15.566 15.566 0 0118.892 15.56a15.447 15.447 0 019.807-14.453 16.99 16.99 0 00-.388 3.614A16.988 16.988 0 0045.28 21.69a16.967 16.967 0 003.614-.388 15.447 15.447 0 01-14.454 9.809z" fill="#fff"/><path class="a" d="M27.765 2.311a17.751 17.751 0 00-.164 2.41A17.7 17.7 0 0045.282 22.4a17.772 17.772 0 002.41-.164 15.006 15.006 0 01-4.332 5.183 14.7 14.7 0 01-8.917 2.979A14.855 14.855 0 0119.602 15.56a14.7 14.7 0 012.979-8.918 15 15 0 015.184-4.331M29.719 0a16.264 16.264 0 00-11.537 15.56 16.258 16.258 0 0016.259 16.259 16.263 16.263 0 0015.56-11.538 16.261 16.261 0 01-4.721.7A16.258 16.258 0 0129.022 4.722a16.261 16.261 0 01.7-4.72z"/><g><path d="M8.615 42.471h-.157A7.833 7.833 0 01.71 34.66a7.821 7.821 0 017.812-7.812h.156l.592.011.118-.581a7.832 7.832 0 017.656-6.253 7.813 7.813 0 017.8 7.368l.043.775.768-.112a7.317 7.317 0 011.049-.077 7.252 7.252 0 017.244 7.244 7.253 7.253 0 01-7.244 7.245z" fill="#f2f2f2"/><path class="a" d="M17.045 20.738a7.1 7.1 0 017.09 6.7l.087 1.549 1.536-.223a6.594 6.594 0 01.947-.069 6.541 6.541 0 016.534 6.534 6.542 6.542 0 01-6.534 6.534H8.465a7.121 7.121 0 01-7.044-7.1 7.11 7.11 0 017.1-7.1h.142l1.185.023.235-1.161a7.12 7.12 0 016.96-5.684m0-1.42a8.525 8.525 0 00-8.352 6.823H8.52A8.523 8.523 0 000 34.659a8.522 8.522 0 008.453 8.521h18.252a7.954 7.954 0 007.955-7.955 7.954 7.954 0 00-7.955-7.954 7.965 7.965 0 00-1.151.084 8.523 8.523 0 00-8.509-8.037z"/></g></svg>