<svg xmlns="http://www.w3.org/2000/svg" width="50" height="50" viewBox="0 0 50 50"><defs><style>.b{fill:#c9c9c9}.c{fill:#f0f0f0}</style></defs><path d="M10.321 33.381A20.192 20.192 0 019.31 7.868 20.4 20.4 0 0118.347 1.1a21.621 21.621 0 0026.008 26.006 20.356 20.356 0 01-3.784 6.274z" fill="#fff"/><path class="b" d="M17.384 2.27a22.332 22.332 0 0025.8 25.8 19.684 19.684 0 01-2.937 4.6H10.645A19.481 19.481 0 019.877 8.3a19.7 19.7 0 017.507-6.025M19.379 0a20.9 20.9 0 00-9.374 34.091h30.882a20.88 20.88 0 004.567-8.016A20.911 20.911 0 0119.379 0z"/><path class="c" d="M50 34.655a1.8 1.8 0 01-1.887 1.7H1.887A1.8 1.8 0 010 34.655a1.8 1.8 0 011.887-1.7h46.226a1.8 1.8 0 011.887 1.7z"/><path class="b" d="M49.643 33.665a1.95 1.95 0 00-1.53-.71H1.886a1.95 1.95 0 00-1.53.71z"/><path class="c" d="M44.709 39.773H5.296a1.713 1.713 0 100 3.409h39.413a1.713 1.713 0 100-3.409zm-10.232 6.818H15.523a1.713 1.713 0 100 3.409h18.954a1.713 1.713 0 100-3.409z"/><path class="b" d="M46.195 40.473h.03a1.952 1.952 0 00-1.522-.7H5.294a1.953 1.953 0 00-1.519.7zm-21.971 6.818h11.773a1.952 1.952 0 00-1.522-.7H15.524a1.953 1.953 0 00-1.523.7z"/></svg>