<svg xmlns="http://www.w3.org/2000/svg" width="50" height="50" viewBox="0 0 50 50"><defs><style>.a{fill:#d8d8d8}</style></defs><path class="a" d="M17.796 48.793A1.207 1.207 0 0116.589 50a1.207 1.207 0 01-1.207-1.207v-16.9a1.207 1.207 0 011.206-1.211 1.207 1.207 0 011.207 1.207z"/><path class="a" d="M10.158 45.957a1.207 1.207 0 01-1.67-.355 1.207 1.207 0 01.355-1.67l14.176-9.207a1.207 1.207 0 011.67.355 1.207 1.207 0 01-.355 1.67z"/><path class="a" d="M23.019 45.957a1.207 1.207 0 001.67-.355 1.207 1.207 0 00-.355-1.67l-14.176-9.207a1.207 1.207 0 00-1.67.355 1.207 1.207 0 00.355 1.67zm13.984-5.687a.639.639 0 01-.639.639.639.639 0 01-.639-.639v-8.949a.639.639 0 01.639-.639.639.639 0 01.639.639z"/><path class="a" d="M32.96 38.769a.639.639 0 01-.884-.188.64.64 0 01.188-.884l7.505-4.874a.639.639 0 01.884.188.64.64 0 01-.188.884z"/><path class="a" d="M39.768 38.769a.639.639 0 00.884-.188.64.64 0 00-.188-.884l-7.505-4.874a.639.639 0 00-.884.188.64.64 0 00.188.884zm-8.092 10.805a.426.426 0 01-.426.426.426.426 0 01-.426-.426v-5.966a.426.426 0 01.426-.426.426.426 0 01.426.426z"/><path class="a" d="M28.981 48.573a.428.428 0 01-.591-.126.427.427 0 01.126-.589l5-3.249a.428.428 0 01.591.126.427.427 0 01-.126.589z"/><path class="a" d="M33.519 48.573a.428.428 0 00.591-.126.427.427 0 00-.126-.589l-5-3.249a.428.428 0 00-.591.126.427.427 0 00.126.589z"/><path d="M43.466 27.699c-.1 0-.2 0-.3-.007H32.174c-.118 0-.236.009-.355.009H10.228a9.528 9.528 0 01-9.517-9.517q0-.244.012-.485c0-.03.017-.236.017-.236.005-.082.011-.163.019-.244 0-.04.009-.079.014-.118l.02-.163c.008-.064.015-.129.025-.192.006-.042.014-.084.022-.127l.03-.17a4.82 4.82 0 01.062-.308l.038-.164c.011-.05.022-.1.035-.151s.028-.1.043-.156l.039-.139.043-.151c.015-.051.036-.111.055-.167l.045-.134.046-.135c.023-.064.048-.126.072-.187l.045-.116.048-.122a9.25 9.25 0 01.089-.2s.08-.18.1-.215c.035-.072.07-.14.1-.208l.1-.2c.043-.081.089-.16.135-.24l.087-.153c.052-.088.106-.171.159-.254l.082-.128c.057-.086.117-.17.177-.254l.082-.116c.063-.086.128-.17.195-.253l.077-.1c.072-.089.144-.173.216-.257l.077-.089c.074-.083.153-.167.232-.25l.071-.074c.083-.085.168-.167.254-.249l.067-.064c.088-.082.18-.163.272-.243l.058-.05c.1-.083.2-.162.295-.24l.052-.041c.105-.081.21-.158.316-.233l.047-.033q.163-.114.332-.222l.024-.016c.13-.082.247-.152.366-.22l.035-.02c.121-.069.244-.134.368-.2l.026-.013q.191-.1.386-.185l.028-.013a12.043 12.043 0 01.816-.319l.027-.009q.212-.072.43-.133a9.003 9.003 0 01.905-.21h.022q.219-.039.443-.068c.312-.04.631-.066.947-.075l.475-.014.182-.484.012-.047a9.5 9.5 0 01.821-2.255c.066-.128.126-.238.188-.347l.016-.029c.062-.107.126-.215.193-.321a9.626 9.626 0 01.933-1.247c.091-.1.166-.183.242-.263l.061-.064c.074-.076.146-.148.219-.218l.086-.082.215-.2.094-.082c.071-.061.145-.125.222-.187l.081-.064c.251-.2.512-.386.779-.557l.141-.09c.06-.037.121-.073.182-.108l.192-.111c.064-.036.13-.071.2-.106l.188-.1c.063-.032.128-.063.193-.094s.138-.063.206-.093l.188-.082c.076-.031.154-.061.232-.091l.17-.065c.132-.047.265-.093.4-.135l.112-.032c.1-.031.207-.061.312-.089l.162-.039c.09-.022.18-.043.27-.062l.176-.035.267-.048.179-.028c.091-.013.184-.024.276-.035l.174-.019c.1-.01.2-.016.305-.023l.149-.01c.153-.007.306-.012.46-.012s.309 0 .462.012l.151.01c.1.007.2.013.305.023l.178.019c.091.011.182.022.273.035l.184.029c.088.014.173.03.259.046l.189.038c.084.018.168.038.253.059l.182.045c.086.023.172.048.257.073l.17.05c.107.034.214.071.32.109.084.03.168.062.251.093l.041.016c.063.024.127.049.19.075s.1.043.149.066l.24.108c.074.035.147.071.22.108l.16.082q.113.06.225.123l.139.08c.079.046.158.093.235.142l.092.059c.1.065.185.12.268.177l.042.03a9.626 9.626 0 011.477 1.272 9.507 9.507 0 012.6 6.109l.065 1.469 1.11-.964a6.67 6.67 0 014.375-1.637 6.684 6.684 0 016.676 6.677v.095l-.007.853.84-.147a5.88 5.88 0 011.016-.09 5.849 5.849 0 011.456.183 5.82 5.82 0 014.368 5.64 5.841 5.841 0 01-4.649 5.706q-.142.029-.287.051c-.134.02-.281.036-.45.049l-.179.013a3.356 3.356 0 01-.269.009z" fill="#f2f2f2"/><path d="M19.886 1.42c.133 0 .273 0 .427.011h.067l.074.005c.094.006.188.012.282.022l.123.013h.041c.085.01.169.02.25.032l.174.027c.08.013.159.027.24.043l.171.034c.079.017.157.035.232.053l.058.014.112.028c.08.021.159.045.238.068l.073.021.083.024c.1.032.2.066.3.1l.232.086.042.016.17.067.134.059.06.027.041.018.126.057c.069.032.136.066.2.1l.149.076c.07.037.139.075.21.115l.126.073c.074.043.147.087.218.131l.083.053.018.012c.079.05.157.1.237.157l.039.028a8.884 8.884 0 01.975.789v.081l.447.368a8.794 8.794 0 012.343 5.589l.131 2.938 2.22-1.929a5.964 5.964 0 013.91-1.462 5.971 5.971 0 015.966 5.956v.099l-.014 1.706 1.681-.3a5.168 5.168 0 01.893-.08 5.134 5.134 0 011.279.161 5.11 5.11 0 013.835 4.953 5.128 5.128 0 01-4.082 5.01 5.053 5.053 0 01-.646.088l-.1.008h-.036c-.082 0-.164.006-.246.006s-.161 0-.242-.006H32.155c-.108 0-.217.009-.327.009H10.237a8.817 8.817 0 01-8.807-8.807c0-.15 0-.3.012-.457v-.052c0-.034.006-.068.007-.095v-.07c0-.074.01-.147.017-.222 0-.031.007-.063.012-.094l.012-.09.01-.082.022-.17c.005-.036.012-.07.018-.105l.016-.09.015-.089c.009-.048.016-.1.027-.147l.027-.119.018-.08.021-.091c.01-.044.019-.088.029-.127l.038-.138.022-.077.019-.07.037-.13c.013-.043.032-.1.048-.146l.024-.07.024-.071c.013-.039.025-.077.041-.119s.041-.11.063-.164l.023-.058.025-.064c.013-.034.026-.068.041-.1l.08-.182.02-.046.029-.064.044-.1.092-.184.022-.043.033-.065c.013-.026.026-.053.04-.078.04-.075.083-.148.132-.234l.032-.056.045-.078c.046-.078.1-.154.147-.234l.029-.046.045-.07c.053-.079.107-.157.164-.236l.036-.051.04-.056c.058-.079.119-.156.183-.238l.029-.038.041-.053c.064-.08.132-.158.2-.233l.038-.045.031-.036c.071-.08.145-.158.215-.232l.04-.043.028-.029c.077-.078.156-.155.237-.232l.03-.03.029-.028c.083-.077.167-.152.251-.224l.035-.03.023-.02c.088-.075.179-.148.276-.224l.021-.017.024-.019c.095-.073.192-.144.29-.214l.012-.009.028-.02c.1-.071.2-.139.308-.205l.029-.018h.007c.107-.067.216-.132.323-.194l.036-.02c.106-.061.221-.122.33-.178l.034-.017c.118-.059.239-.117.353-.168l.025-.011c.122-.055.247-.107.373-.157h.013c.119-.047.24-.091.359-.132h.005l.032-.011c.13-.044.263-.085.4-.123h.019c.132-.037.266-.071.4-.1h.011c.136-.031.274-.06.411-.084l.036-.007a8.854 8.854 0 011.271-.13l1.067-.035.266-1.034v-.043a8.739 8.739 0 01.753-2.068l.01-.02.161-.3.02-.035c.058-.1.116-.2.178-.3l.008-.013a8.857 8.857 0 01.856-1.142l.01-.012V4.38c.068-.076.138-.151.2-.219l.033-.034.033-.034c.065-.067.132-.133.2-.2l.078-.075c.067-.063.134-.125.2-.183l.044-.038.043-.037c.069-.059.137-.118.21-.177l.032-.025.042-.033c.231-.183.474-.357.722-.516l.05-.032.079-.051.166-.1.022-.012.016-.009.14-.081.184-.1.172-.088.184-.089.189-.086.025-.011.146-.063c.072-.03.145-.058.221-.087l.07-.028.08-.031a8.55 8.55 0 01.37-.125l.033-.009.074-.022c.1-.028.191-.056.288-.082l.086-.021.064-.015c.083-.02.166-.04.247-.057l.166-.033a7.79 7.79 0 01.243-.043l.168-.026c.084-.012.169-.022.254-.032h.043l.117-.013c.094-.009.189-.015.287-.022h.136a9.36 9.36 0 01.425-.011m0-1.42c-.165 0-.33 0-.493.012l-.161.011c-.11.007-.219.014-.328.025l-.187.021c-.1.011-.2.023-.3.038l-.193.03q-.144.024-.286.051l-.19.038c-.1.021-.193.043-.289.067l-.175.043c-.113.03-.224.062-.335.095l-.121.035q-.219.068-.432.146l-.177.068-.256.1c-.067.028-.134.058-.2.087s-.147.065-.22.1l-.209.1-.2.1c-.071.038-.143.076-.213.115l-.182.1c-.073.043-.147.085-.219.13-.051.031-.1.065-.151.1a10.235 10.235 0 00-.836.6l-.087.069c-.082.066-.162.135-.242.2l-.1.086c-.079.07-.156.141-.233.214l-.091.086c-.078.076-.156.152-.231.231l-.07.073a9.808 9.808 0 00-.239.26l-.02.022a10.279 10.279 0 00-1 1.334v.005q-.108.171-.208.347l-.017.029q-.1.176-.193.355l-.01.019a10.164 10.164 0 00-.879 2.409v.007q-.516.016-1.018.081-.25.032-.5.077-.246.044-.487.1-.24.056-.476.123h-.006q-.234.066-.463.143h-.011q-.226.077-.448.163l-.017.007q-.219.086-.432.182l-.022.01q-.21.1-.415.2l-.029.015q-.2.1-.4.213l-.036.021q-.191.11-.378.226l-.042.027q-.182.116-.358.239l-.05.035a9.148 9.148 0 00-.337.249l-.057.045q-.16.125-.315.256l-.064.056c-.1.086-.2.173-.294.262l-.071.067q-.139.132-.273.268l-.076.08c-.085.089-.169.179-.251.271l-.081.093c-.078.09-.155.18-.23.273-.029.035-.057.072-.084.107-.071.09-.142.181-.21.274-.03.04-.058.082-.087.123-.064.09-.128.18-.189.273l-.089.138a11.103 11.103 0 00-.259.425l-.151.269c-.03.056-.058.113-.087.17-.045.088-.091.176-.133.266-.029.061-.056.123-.084.184-.039.088-.08.174-.116.263-.028.066-.053.133-.079.2-.034.086-.068.172-.1.259-.026.072-.049.145-.074.218s-.058.167-.084.252-.045.157-.066.236-.047.162-.068.244-.039.168-.058.252-.038.158-.054.238-.032.179-.048.269-.029.153-.04.23c-.014.1-.025.194-.037.291-.009.072-.02.144-.027.216-.011.11-.018.222-.026.333 0 .061-.011.12-.013.181q-.013.259-.013.521A10.227 10.227 0 0010.216 28.41h21.591c.129 0 .256 0 .384-.01h10.927q.167.009.336.009t.336-.009h.154v-.01c.17-.012.339-.03.505-.055q.162-.025.322-.057a6.536 6.536 0 005.217-6.4 6.536 6.536 0 00-4.9-6.328 6.556 6.556 0 00-1.633-.206 6.6 6.6 0 00-1.139.1v-.1a7.387 7.387 0 00-7.386-7.387 7.355 7.355 0 00-4.841 1.811A10.19 10.19 0 0027.3 3.203a10.271 10.271 0 00-1.583-1.364l-.049-.035c-.09-.061-.18-.121-.272-.18l-.116-.074q-.125-.078-.253-.152l-.149-.086q-.12-.068-.243-.132l-.172-.088a17.22 17.22 0 00-.236-.116c-.064-.03-.13-.059-.195-.088s-.15-.068-.226-.1-.164-.065-.247-.1-.179-.068-.27-.1a12.7 12.7 0 00-.345-.117c-.06-.019-.121-.036-.182-.053-.092-.027-.184-.054-.277-.078-.064-.017-.13-.032-.2-.048a13.336 13.336 0 00-.272-.063l-.2-.04q-.138-.027-.278-.05l-.2-.031c-.1-.014-.2-.026-.293-.037l-.19-.021c-.109-.01-.218-.018-.327-.025-.054 0-.108-.008-.163-.011a10.212 10.212 0 00-.5-.012z" fill="#c9c9c9"/></svg>