<svg xmlns="http://www.w3.org/2000/svg" width="50" height="50" viewBox="0 0 50 50"><defs><style>.a{fill:#fecb2f}</style></defs><path class="a" d="M26.704 5.373a1.591 1.591 0 01-1.7 1.445 1.591 1.591 0 01-1.7-1.445V1.445A1.591 1.591 0 0124.995 0a1.591 1.591 0 011.7 1.445zm13.38 6.954a1.591 1.591 0 01-2.227-.184 1.591 1.591 0 01-.184-2.227l2.778-2.778a1.591 1.591 0 012.227.183 1.592 1.592 0 01.183 2.227zm4.543 14.377a1.591 1.591 0 01-1.445-1.709 1.591 1.591 0 011.445-1.7h3.928a1.591 1.591 0 011.445 1.7 1.591 1.591 0 01-1.445 1.7zm-43.182 0A1.591 1.591 0 010 24.995a1.591 1.591 0 011.445-1.7h3.928a1.59 1.59 0 011.445 1.7 1.591 1.591 0 01-1.445 1.7zM7.139 9.555a1.592 1.592 0 01.184-2.228 1.591 1.591 0 012.227-.183l2.777 2.778a1.591 1.591 0 01-.183 2.227 1.591 1.591 0 01-2.227.184z"/><path class="a" d="M26.704 5.373a1.591 1.591 0 01-1.7 1.445 1.591 1.591 0 01-1.7-1.445V1.445A1.591 1.591 0 0124.995 0a1.591 1.591 0 011.7 1.445zm13.38 6.954a1.591 1.591 0 01-2.227-.184 1.591 1.591 0 01-.184-2.227l2.778-2.778a1.591 1.591 0 012.227.183 1.592 1.592 0 01.183 2.227zm4.543 14.377a1.591 1.591 0 01-1.445-1.709 1.591 1.591 0 011.445-1.7h3.928a1.591 1.591 0 011.445 1.7 1.591 1.591 0 01-1.445 1.7zm-43.182 0A1.591 1.591 0 010 24.995a1.591 1.591 0 011.445-1.7h3.928a1.59 1.59 0 011.445 1.7 1.591 1.591 0 01-1.445 1.7zM7.139 9.555a1.592 1.592 0 01.184-2.228 1.591 1.591 0 012.227-.183l2.777 2.778a1.591 1.591 0 01-.183 2.227 1.591 1.591 0 01-2.227.184z"/><path d="M12.323 33.381a15.1 15.1 0 01-2.522-8.38 15.216 15.216 0 0115.2-15.2 15.216 15.216 0 0115.2 15.2 15.1 15.1 0 01-2.522 8.381z" fill="#ffe269"/><path class="a" d="M25 10.511A14.505 14.505 0 0139.491 25a14.389 14.389 0 01-2.2 7.67H12.71a14.389 14.389 0 01-2.2-7.67A14.505 14.505 0 0125 10.511m0-1.42A15.909 15.909 0 009.091 25a15.83 15.83 0 002.857 9.091h26.105A15.83 15.83 0 0040.91 25 15.909 15.909 0 0025 9.091z"/><path d="M34.477 46.591H15.523a1.8 1.8 0 00-1.887 1.7 1.8 1.8 0 001.887 1.7h18.954a1.8 1.8 0 001.887-1.7 1.8 1.8 0 00-1.887-1.7zM50 34.655a1.8 1.8 0 01-1.887 1.7H1.887A1.8 1.8 0 010 34.655a1.8 1.8 0 011.887-1.7h46.226a1.8 1.8 0 011.887 1.7zm-5.291 5.118H5.296a1.8 1.8 0 00-1.887 1.7 1.8 1.8 0 001.887 1.7h39.413a1.8 1.8 0 001.887-1.7 1.8 1.8 0 00-1.887-1.7z" fill="#f0f0f0"/><path d="M46.197 40.473h.03a1.952 1.952 0 00-1.523-.7H5.296a1.953 1.953 0 00-1.519.7zm-21.97 6.818h11.772a1.952 1.952 0 00-1.523-.7H15.519a1.952 1.952 0 00-1.523.7zm25.416-13.626a1.95 1.95 0 00-1.53-.71H1.886a1.95 1.95 0 00-1.53.71z" fill="#c9c9c9"/></svg>